<svg width="1440" height="332" viewBox="0 0 1440 332" fill="none" xmlns="http://www.w3.org/2000/svg">
<path d="M1393.5 291.063C1377.89 286.647 1354.81 284.113 1335.51 288.663C1334.74 283.824 1333.36 279.102 1331.4 274.609C1321.54 251.761 1299.65 237.188 1276.26 230.756C1210.87 212.804 1154.05 259.038 1100.16 288.356C1067.52 306.078 1028.95 321.399 991.219 313.316C966.528 307.978 942.97 289.393 933.35 265.508C949.997 262.935 965.798 256.388 974.592 242.833C985.498 226.014 975.725 195.62 951.955 201.476C926.534 207.735 921.331 240.452 928.051 261.975C912.47 263.809 896.686 262.866 881.434 259.191C808.934 242.257 762.048 180.682 717.83 125.77C697.594 100.58 676.877 73.2583 649.306 55.6711C638.592 48.8359 623.059 42.3655 608.141 41.1559C605.856 35.1263 602.572 29.5247 598.426 24.5863C577.747 0.624728 543.648 -2.86967 514.138 1.75753C482.477 6.73033 452.909 20.6311 426.778 38.8903C368.64 79.5751 329.491 139.978 284.275 193.412C261.619 220.177 235.603 248.458 199.795 256.158C177.139 261.034 151.354 255.678 138.01 238.474C147.091 221.521 150.893 202.225 145.843 183.044C145.763 182.804 145.636 182.582 145.47 182.392C145.304 182.201 145.102 182.045 144.875 181.932C144.649 181.82 144.402 181.753 144.15 181.737C143.897 181.72 143.644 181.753 143.405 181.834C123.84 189.879 121.805 213.342 129.197 230.871C130.389 233.696 131.855 236.396 133.574 238.935C121.286 260.055 100.07 276.874 78.2592 285.668C53.3783 295.418 26.2446 297.921 0 292.887L0 296.497C47.4048 305.386 98.6688 292.215 129.274 252.164C131.721 248.952 133.978 245.599 136.032 242.122C148.896 258.078 170.957 263.665 191.712 261.322C223.757 257.732 249.658 237.111 270.95 214.282C295.68 187.882 317.088 158.564 339.84 130.551C383.078 77.0983 434.976 22.7239 504.845 7.45993C538.253 0.144727 580.723 2.14152 600.845 34.3399C602.179 36.5041 603.354 38.7629 604.358 41.0983C592.147 40.8871 580.685 44.5351 572.947 54.8263C561.427 70.1863 572.947 99.2551 594.605 89.9047C612.787 82.0327 614.88 62.5447 609.619 45.4759C614.427 45.8397 619.187 46.6822 623.827 47.9911C640.55 52.8871 655.104 63.3511 667.795 74.8711C694.003 98.9863 715.008 128.631 737.472 156.126C778.483 206.372 828.941 257.713 896.832 265.566C907.671 266.857 918.622 266.909 929.472 265.719C938.688 289.182 960.192 307.767 984.038 315.102C1015.85 324.874 1050.78 315.582 1080.13 302.353C1112.56 287.991 1141.42 266.871 1173.12 250.974C1202.65 236.132 1235.17 226.014 1268.33 232.81C1295.92 238.455 1323.42 255.85 1330.81 284.65C1331.24 286.32 1331.58 288.012 1331.83 289.719C1315.95 294.385 1303.33 304.369 1300.9 322.878C1300.79 323.374 1300.89 323.891 1301.17 324.315C1301.45 324.739 1301.88 325.037 1302.37 325.143C1313.3 328.887 1325.18 323.607 1331.17 314.046C1335.03 307.646 1336.69 300.164 1335.92 292.734C1338.07 292.1 1340.24 291.582 1342.39 291.14C1361.4 287.3 1381.19 290.929 1399.35 296.9C1413.79 301.706 1427.48 308.539 1440 317.194V312.567C1425.71 303.019 1410.02 295.764 1393.5 291.063ZM135.744 235.153C131.97 229.073 129.73 222.168 129.216 215.031C128.218 203.396 132.192 191.991 142.771 186.481C146.369 203.021 143.874 220.305 135.744 235.153ZM596.256 84.4711C578.707 96.3367 565.939 72.6631 575.04 58.3399C581.587 48.0295 593.837 44.8999 605.894 45.1687C610.56 59.1271 609.35 75.6199 596.256 84.4711ZM931.891 261.342C930.766 257.951 929.937 254.469 929.414 250.935C927.168 235.268 932.102 216.51 946.387 207.85C964.992 196.542 979.814 216.99 974.381 234.385C968.947 251.78 948.422 258.634 932.429 261.265L931.891 261.342ZM1326.89 313.489C1324.45 316.864 1321.07 319.453 1317.18 320.936C1313.28 322.42 1309.04 322.734 1304.97 321.841C1307.64 307.441 1319.1 298.59 1332.21 293.886C1332.8 300.842 1330.92 307.783 1326.89 313.489Z" fill="#FBE8D3"/>
</svg>
