<svg width="934" height="429" viewBox="0 0 934 429" fill="none" xmlns="http://www.w3.org/2000/svg">
<path d="M77.3985 411.873C86.3386 406.545 100.22 401.142 112.933 400.758C112.608 397.631 112.68 394.475 113.146 391.366C115.468 375.568 126.612 362.903 140.036 355.033C177.581 333.049 220.466 352.267 258.733 361.487C281.903 367.049 308.351 370.139 330.389 358.865C344.804 351.457 356.318 336.028 358.313 319.629C347.569 320.798 336.69 319.365 328.99 312.425C319.438 303.813 320.448 283.355 336.15 283.037C352.943 282.695 361.6 302.105 361.01 316.559C370.971 315.108 380.595 311.904 389.437 307.093C431.553 284.56 450.385 238.617 468.669 197.245C477.027 178.274 485.329 157.902 499.494 142.425C504.999 136.41 513.55 129.821 522.594 126.594C523.009 122.478 524.114 118.462 525.863 114.713C534.699 96.43 555.251 88.6023 574.307 86.5695C594.753 84.3939 615.385 88.0986 634.611 95.0749C677.395 110.634 711.686 141.566 748.579 167.171C767.063 179.995 787.882 193.202 811.351 192.027C826.201 191.287 841.291 183.686 846.704 170.809C838.261 161.811 832.701 150.484 832.645 137.759C832.655 137.597 832.697 137.438 832.768 137.293C832.839 137.147 832.938 137.017 833.06 136.909C833.182 136.802 833.324 136.72 833.477 136.668C833.631 136.615 833.793 136.594 833.955 136.604C847.416 138.341 852.573 152.543 850.903 164.634C850.633 166.582 850.173 168.499 849.529 170.358C860.651 181.406 876.591 188.306 891.568 190.134C908.606 192.044 925.837 189.09 941.265 181.612L941.864 183.849C913.963 197.23 880.007 197.58 854.391 177.842C852.341 176.258 850.385 174.555 848.535 172.741C843.213 184.765 830.469 191.89 817.218 193.885C796.763 196.981 777.288 188.503 760.302 177.892C740.593 165.638 722.458 151.024 703.707 137.442C668.036 111.496 626.845 86.4178 581.012 88.5603C559.095 89.5744 533.107 97.8641 525.984 121.159C525.516 122.722 525.164 124.316 524.929 125.931C532.461 123.772 540.17 124.129 546.674 129.222C556.364 136.828 554.051 156.755 539.077 154.557C526.502 152.698 521.97 140.968 522.395 129.517C519.476 130.541 516.667 131.853 514.008 133.435C504.458 139.246 497.176 148.147 491.224 157.394C478.987 176.69 470.893 198.549 461.537 219.318C444.466 257.266 421.722 297.461 380.953 313.601C374.451 316.201 367.673 318.051 360.751 319.116C358.936 335.186 348.696 350.274 335.136 358.779C317.043 370.118 293.857 370.159 273.467 366.835C250.986 363.32 229.596 355.024 207.312 350.436C186.547 346.141 164.711 345.272 145.291 354.99C129.131 363.069 114.981 378.415 115.182 397.49C115.192 398.596 115.262 399.701 115.393 400.8C126.008 401.055 135.483 405.147 140.067 416.212C140.213 416.503 140.238 416.839 140.137 417.148C140.036 417.457 139.817 417.714 139.527 417.862C133.379 421.996 125.137 420.698 119.837 415.767C116.385 412.441 114.111 408.081 113.359 403.347C111.921 403.312 110.491 403.351 109.085 403.434C96.6678 404.211 85.003 409.746 74.7386 416.463C66.5873 421.839 59.241 428.346 52.9196 435.789L52.1513 432.921C59.4187 424.632 67.9372 417.531 77.3985 411.873ZM847.556 168.374C848.886 163.98 849.127 159.329 848.261 154.821C846.947 147.444 842.59 141.037 835.119 139.379C835.636 150.227 840.053 160.523 847.556 168.374ZM537.152 151.464C549.997 155.903 553.979 139.112 545.961 131.747C540.191 126.445 532.08 126.539 524.653 128.708C524.079 138.133 527.567 148.153 537.152 151.464ZM358.525 316.804C358.659 314.516 358.595 312.221 358.332 309.944C357.123 299.862 350.95 289.057 340.659 286.063C327.252 282.144 321.462 297.277 327.718 307.155C333.973 317.032 347.831 317.872 358.179 316.846L358.525 316.804ZM122.398 414.711C124.474 416.397 126.996 417.44 129.656 417.713C132.316 417.985 134.998 417.475 137.373 416.246C133.328 407.765 124.755 404.183 115.847 403.446C116.638 407.854 118.957 411.843 122.398 414.711Z" fill="#FF7069"/>
</svg>
