<svg width="654" height="654" viewBox="0 0 654 654" fill="none" xmlns="http://www.w3.org/2000/svg">
<g filter="url(#filter0_f_302_40)">
<path d="M406.31 519.044C435.497 506.653 461.367 487.584 481.84 463.371C502.313 439.158 516.816 410.478 524.183 379.637L508.267 375.835C501.495 404.184 488.163 430.548 469.344 452.805C450.525 475.062 426.744 492.59 399.915 503.981L406.31 519.044Z" fill="#F04465" fill-opacity="0.5"/>
</g>
<path d="M406.31 519.044C435.497 506.653 461.367 487.584 481.84 463.371C502.313 439.158 516.816 410.478 524.183 379.637L508.267 375.835C501.495 404.184 488.163 430.548 469.344 452.805C450.525 475.062 426.744 492.59 399.915 503.981L406.31 519.044Z" fill="#F04465"/>
<g filter="url(#filter1_f_302_40)">
<path d="M125.737 333.501C125.705 360.104 130.913 386.454 141.064 411.045C151.215 435.636 166.11 457.987 184.899 476.821C203.688 495.656 226.003 510.605 250.569 520.816C275.136 531.026 301.473 536.298 328.076 536.33L328.096 519.966C303.641 519.936 279.432 515.09 256.85 505.704C234.268 496.319 213.756 482.577 196.485 465.264C179.214 447.951 165.521 427.406 156.19 404.801C146.859 382.196 142.072 357.975 142.101 333.52L125.737 333.501Z" fill="#F48F18" fill-opacity="0.5"/>
</g>
<path d="M125.737 333.501C125.705 360.104 130.913 386.454 141.064 411.045C151.215 435.636 166.11 457.987 184.899 476.821C203.688 495.656 226.003 510.605 250.569 520.816C275.136 531.026 301.473 536.298 328.076 536.33L328.096 519.966C303.641 519.936 279.432 515.09 256.85 505.704C234.268 496.319 213.756 482.577 196.485 465.264C179.214 447.951 165.521 427.406 156.19 404.801C146.859 382.196 142.072 357.975 142.101 333.52L125.737 333.501Z" fill="#F48F18"/>
<g filter="url(#filter2_f_302_40)">
<path d="M333.715 130.09C306.054 129.193 278.503 133.972 252.76 144.134C227.018 154.295 203.631 169.623 184.042 189.173L195.601 200.756C213.608 182.786 235.106 168.696 258.769 159.355C282.432 150.015 307.758 145.621 333.184 146.446L333.715 130.09Z" fill="#59C3C8" fill-opacity="0.5"/>
</g>
<path d="M333.715 130.09C306.054 129.193 278.503 133.972 252.76 144.134C227.018 154.295 203.631 169.623 184.042 189.173L195.601 200.756C213.608 182.786 235.106 168.696 258.769 159.355C282.432 150.015 307.758 145.621 333.184 146.446L333.715 130.09Z" fill="#59C3C8"/>
<g filter="url(#filter3_d_302_40)">
<circle cx="327.392" cy="332.818" r="117.572" fill="#1E1A22"/>
</g>
<path d="M307.063 295.233C306.692 296.008 306.507 297.309 306.507 299.136C306.507 300.963 306.692 302.264 307.063 303.039C307.434 303.808 308.03 304.192 308.853 304.192C309.682 304.192 310.282 303.797 310.653 303.009C311.037 302.22 311.229 300.933 311.229 299.146C311.229 297.36 311.037 296.069 310.653 295.274C310.275 294.471 309.675 294.07 308.853 294.07C308.037 294.07 307.441 294.458 307.063 295.233ZM304.343 299.065C304.343 296.773 304.714 295.071 305.455 293.959C306.197 292.84 307.319 292.281 308.822 292.281C310.332 292.281 311.468 292.864 312.23 294.03C312.998 295.189 313.383 296.908 313.383 299.187C313.383 301.458 313.008 303.157 312.26 304.283C311.519 305.408 310.396 305.971 308.893 305.971C307.39 305.971 306.254 305.392 305.486 304.232C304.724 303.073 304.343 301.35 304.343 299.065ZM314.967 296.78C314.967 295.446 315.358 294.367 316.14 293.545C316.922 292.722 318.008 292.311 319.396 292.311C320.791 292.311 321.907 292.83 322.743 293.868C323.586 294.9 324.007 296.332 324.007 298.165C324.007 300.788 323.478 302.746 322.419 304.04C321.368 305.328 319.78 305.971 317.657 305.971C316.862 305.971 316.282 305.924 315.918 305.83V304.03C316.464 304.185 317.007 304.263 317.546 304.263C318.988 304.263 320.063 303.875 320.771 303.1C321.486 302.318 321.877 301.098 321.944 299.439H321.833C321.482 299.979 321.054 300.373 320.549 300.622C320.05 300.865 319.453 300.986 318.759 300.986C317.579 300.986 316.653 300.619 315.979 299.884C315.304 299.15 314.967 298.115 314.967 296.78ZM319.366 294.091C318.624 294.091 318.055 294.33 317.657 294.809C317.266 295.287 317.071 295.941 317.071 296.77C317.071 297.592 317.256 298.219 317.627 298.651C318.004 299.075 318.557 299.288 319.285 299.288C320.013 299.288 320.623 299.072 321.115 298.641C321.607 298.209 321.853 297.704 321.853 297.124C321.867 296.302 321.631 295.587 321.145 294.98C320.667 294.367 320.074 294.07 319.366 294.091ZM328.393 305.678C328.157 305.928 327.823 306.052 327.392 306.052C326.96 306.052 326.626 305.931 326.391 305.688C326.161 305.439 326.047 305.095 326.047 304.657C326.047 304.212 326.161 303.872 326.391 303.636C326.62 303.4 326.953 303.282 327.392 303.282C327.83 303.282 328.163 303.403 328.393 303.646C328.628 303.888 328.746 304.225 328.746 304.657C328.746 305.088 328.628 305.429 328.393 305.678ZM328.746 296.881C328.746 297.319 328.628 297.663 328.393 297.913C328.157 298.162 327.82 298.287 327.381 298.287C326.95 298.287 326.62 298.165 326.391 297.923C326.161 297.673 326.047 297.326 326.047 296.881C326.047 295.965 326.495 295.506 327.392 295.506C327.836 295.506 328.173 295.628 328.403 295.87C328.632 296.106 328.746 296.443 328.746 296.881ZM333.469 295.233C333.099 296.008 332.913 297.309 332.913 299.136C332.913 300.963 333.099 302.264 333.469 303.039C333.84 303.808 334.437 304.192 335.259 304.192C336.088 304.192 336.688 303.797 337.059 303.009C337.443 302.22 337.635 300.933 337.635 299.146C337.635 297.36 337.443 296.069 337.059 295.274C336.681 294.471 336.081 294.07 335.259 294.07C334.443 294.07 333.847 294.458 333.469 295.233ZM330.749 299.065C330.749 296.773 331.12 295.071 331.862 293.959C332.603 292.84 333.725 292.281 335.229 292.281C336.739 292.281 337.874 292.864 338.636 294.03C339.405 295.189 339.789 296.908 339.789 299.187C339.789 301.458 339.415 303.157 338.666 304.283C337.925 305.408 336.803 305.971 335.299 305.971C333.796 305.971 332.66 305.392 331.892 304.232C331.13 303.073 330.749 301.35 330.749 299.065ZM344.114 295.233C343.743 296.008 343.558 297.309 343.558 299.136C343.558 300.963 343.743 302.264 344.114 303.039C344.485 303.808 345.081 304.192 345.904 304.192C346.733 304.192 347.333 303.797 347.703 303.009C348.088 302.22 348.28 300.933 348.28 299.146C348.28 297.36 348.088 296.069 347.703 295.274C347.326 294.471 346.726 294.07 345.904 294.07C345.088 294.07 344.491 294.458 344.114 295.233ZM341.394 299.065C341.394 296.773 341.765 295.071 342.506 293.959C343.248 292.84 344.37 292.281 345.873 292.281C347.383 292.281 348.519 292.864 349.281 294.03C350.049 295.189 350.433 296.908 350.433 299.187C350.433 301.458 350.059 303.157 349.311 304.283C348.57 305.408 347.447 305.971 345.944 305.971C344.441 305.971 343.305 305.392 342.536 304.232C341.775 303.073 341.394 301.35 341.394 299.065Z" fill="white"/>
<path d="M300.418 346.472C300.418 346.952 300.528 347.321 300.75 347.58C300.976 347.839 301.283 347.969 301.672 347.969C302.065 347.969 302.437 347.92 302.788 347.823V348.745C302.664 348.804 302.467 348.856 302.197 348.899C301.933 348.942 301.707 348.964 301.518 348.964C299.976 348.964 299.205 348.152 299.205 346.529V341.781H298.064V341.198L299.205 340.697L299.714 338.99H300.418V340.842H302.731V341.781H300.418V346.472ZM305.506 339.281C305.371 339.416 305.198 339.483 304.988 339.483C304.778 339.483 304.608 339.416 304.478 339.281C304.349 339.141 304.284 338.939 304.284 338.674C304.284 338.41 304.349 338.211 304.478 338.076C304.608 337.941 304.778 337.874 304.988 337.874C305.198 337.874 305.371 337.944 305.506 338.084C305.64 338.219 305.708 338.418 305.708 338.682C305.708 338.941 305.64 339.141 305.506 339.281ZM305.595 340.842V348.818H304.381V340.842H305.595ZM309.36 337.493V348.818H308.147V337.493H309.36ZM313.126 337.493V348.818H311.912V337.493H313.126ZM323.898 338.173V348.818H322.725V341.23C322.725 340.562 322.744 339.966 322.782 339.443C322.679 339.545 322.561 339.656 322.426 339.774C322.291 339.888 321.717 340.357 320.703 341.182L320.064 340.349L322.879 338.173H323.898ZM334.549 340.68C334.549 341.355 334.36 341.91 333.982 342.347C333.605 342.778 333.063 343.067 332.357 343.212V343.269C334.039 343.485 334.88 344.329 334.88 345.801C334.88 346.82 334.53 347.602 333.829 348.147C333.128 348.691 332.162 348.964 330.933 348.964C329.703 348.964 328.698 348.772 327.916 348.389V347.241C328.854 347.704 329.838 347.936 330.868 347.936C332.707 347.936 333.627 347.216 333.627 345.776C333.627 344.482 332.613 343.835 330.585 343.835H329.534V342.8H330.601C331.426 342.8 332.082 342.616 332.567 342.25C333.058 341.883 333.303 341.373 333.303 340.721C333.303 340.203 333.125 339.796 332.769 339.499C332.413 339.203 331.928 339.055 331.313 339.055C330.844 339.055 330.404 339.117 329.995 339.241C329.585 339.365 329.113 339.599 328.579 339.944L327.972 339.127C328.911 338.389 330.013 338.019 331.281 338.019C332.316 338.019 333.12 338.256 333.691 338.731C334.263 339.206 334.549 339.855 334.549 340.68ZM338.542 342.339C338.38 342.511 338.165 342.598 337.895 342.598C337.625 342.598 337.412 342.519 337.256 342.363C337.105 342.201 337.029 341.953 337.029 341.619C337.029 340.961 337.315 340.632 337.887 340.632C338.485 340.632 338.785 340.961 338.785 341.619C338.785 341.926 338.704 342.166 338.542 342.339ZM338.542 348.769C338.38 348.942 338.165 349.028 337.895 349.028C337.631 349.028 337.42 348.947 337.264 348.786C337.108 348.624 337.029 348.381 337.029 348.058C337.029 347.729 337.102 347.481 337.248 347.313C337.399 347.141 337.614 347.055 337.895 347.055C338.175 347.055 338.394 347.141 338.55 347.313C338.706 347.481 338.785 347.723 338.785 348.041C338.785 348.354 338.704 348.597 338.542 348.769ZM347.666 343.528C347.666 347.152 346.501 348.964 344.172 348.964C343.001 348.964 342.117 348.5 341.518 347.572C340.925 346.639 340.629 345.261 340.629 343.439C340.629 341.616 340.917 340.257 341.494 339.362C342.071 338.461 342.942 338.011 344.107 338.011C345.277 338.011 346.161 338.478 346.76 339.41C347.364 340.343 347.666 341.716 347.666 343.528ZM342.392 340.106C342.031 340.807 341.85 341.934 341.85 343.487C341.85 345.035 342.031 346.162 342.392 346.869C342.759 347.57 343.341 347.92 344.139 347.92C344.943 347.92 345.525 347.567 345.886 346.86C346.248 346.149 346.428 345.024 346.428 343.487C346.428 341.95 346.245 340.829 345.878 340.122C345.517 339.41 344.935 339.055 344.131 339.055C343.333 339.055 342.753 339.405 342.392 340.106ZM356.197 343.528C356.197 347.152 355.032 348.964 352.703 348.964C351.533 348.964 350.648 348.5 350.05 347.572C349.456 346.639 349.16 345.261 349.16 343.439C349.16 341.616 349.448 340.257 350.025 339.362C350.602 338.461 351.473 338.011 352.638 338.011C353.808 338.011 354.693 338.478 355.291 339.41C355.895 340.343 356.197 341.716 356.197 343.528ZM350.923 340.106C350.562 340.807 350.381 341.934 350.381 343.487C350.381 345.035 350.562 346.162 350.923 346.869C351.29 347.57 351.872 347.92 352.67 347.92C353.474 347.92 354.056 347.567 354.418 346.86C354.779 346.149 354.96 345.024 354.96 343.487C354.96 341.95 354.776 340.829 354.41 340.122C354.048 339.41 353.466 339.055 352.662 339.055C351.864 339.055 351.285 339.405 350.923 340.106Z" fill="#C0C0C0" fill-opacity="0.7"/>
<path d="M326.487 204.579C327.403 204.579 328.283 204.139 328.931 203.355C329.579 202.571 329.943 201.507 329.943 200.399V166.968C329.943 164.66 328.396 162.791 326.487 162.791C324.578 162.791 323.03 164.66 323.03 166.968V200.399C323.03 201.507 323.394 202.571 324.043 203.355C324.691 204.139 325.571 204.579 326.487 204.579H326.487Z" fill="#C0C0C0" fill-opacity="0.2"/>
<path d="M453.822 331.914C453.822 332.83 454.262 333.71 455.046 334.358C455.83 335.006 456.894 335.37 458.002 335.37H491.433C493.741 335.37 495.61 333.823 495.61 331.914C495.61 330.005 493.741 328.457 491.433 328.457H458.002C456.894 328.457 455.83 328.821 455.046 329.47C454.262 330.118 453.822 330.998 453.822 331.914V331.914Z" fill="#C0C0C0" fill-opacity="0.2"/>
<path d="M326.487 459.248C325.571 459.248 324.691 459.689 324.043 460.473C323.395 461.257 323.031 462.321 323.031 463.428V496.859C323.031 499.168 324.578 501.036 326.487 501.036C328.396 501.036 329.944 499.168 329.944 496.859V463.428C329.944 462.321 329.58 461.257 328.931 460.473C328.283 459.689 327.403 459.248 326.487 459.248H326.487Z" fill="#C0C0C0" fill-opacity="0.2"/>
<path d="M194.974 328.459H161.543C159.234 328.459 157.366 330.006 157.366 331.915C157.366 333.824 159.234 335.372 161.543 335.372H194.974C197.282 335.372 199.154 333.824 199.154 331.915C199.154 330.006 197.282 328.459 194.974 328.459Z" fill="#C0C0C0" fill-opacity="0.2"/>
<path d="M244.558 184.591C243.399 184.591 242.292 185.051 241.474 185.866C240.656 186.684 240.197 187.794 240.197 188.949V189.345C240.197 191.753 242.15 193.705 244.558 193.705C246.964 193.705 248.916 191.753 248.916 189.345V188.949C248.916 187.794 248.457 186.684 247.639 185.866C246.821 185.051 245.714 184.591 244.558 184.591H244.558Z" fill="#C0C0C0" fill-opacity="0.2"/>
<path d="M410.225 471.931C409.069 471.931 407.962 472.39 407.144 473.208C406.326 474.026 405.867 475.133 405.867 476.291V476.687C405.867 479.095 407.82 481.045 410.225 481.045C412.634 481.045 414.586 479.095 414.586 476.687V476.291C414.586 475.133 414.127 474.026 413.309 473.208C412.491 472.39 411.384 471.931 410.225 471.931H410.225Z" fill="#C0C0C0" fill-opacity="0.2"/>
<path d="M183.919 411.292H183.524C181.115 411.292 179.166 413.245 179.166 415.65C179.166 418.059 181.115 420.011 183.524 420.011H183.919C186.328 420.011 188.28 418.059 188.28 415.65C188.28 413.245 186.328 411.292 183.919 411.292Z" fill="#C0C0C0" fill-opacity="0.2"/>
<path d="M470.864 254.344H471.259C473.668 254.344 475.617 252.392 475.617 249.987C475.617 247.578 473.668 245.626 471.259 245.626H470.864C468.455 245.626 466.503 247.578 466.503 249.987C466.503 252.392 468.455 254.344 470.864 254.344Z" fill="#C0C0C0" fill-opacity="0.2"/>
<path d="M183.522 254.344H183.918C186.326 254.344 188.279 252.392 188.279 249.987C188.279 247.578 186.326 245.626 183.918 245.626H183.522C181.114 245.626 179.165 247.578 179.165 249.987C179.165 252.392 181.114 254.344 183.522 254.344Z" fill="#C0C0C0" fill-opacity="0.2"/>
<path d="M471.26 411.292H470.865C468.456 411.292 466.504 413.245 466.504 415.65C466.504 418.059 468.456 420.011 470.865 420.011H471.26C473.669 420.011 475.618 418.059 475.618 415.65C475.618 413.245 473.669 411.292 471.26 411.292Z" fill="#C0C0C0" fill-opacity="0.2"/>
<path d="M244.558 471.931C243.399 471.931 242.292 472.39 241.474 473.208C240.657 474.026 240.197 475.133 240.197 476.291V476.687C240.197 479.095 242.15 481.045 244.558 481.045C246.964 481.045 248.916 479.095 248.916 476.687V476.291C248.916 475.133 248.457 474.026 247.639 473.208C246.821 472.39 245.714 471.931 244.558 471.931H244.558Z" fill="#C0C0C0" fill-opacity="0.2"/>
<path d="M410.226 193.706C411.384 193.706 412.491 193.247 413.309 192.429C414.127 191.611 414.586 190.504 414.586 189.345V188.95C414.586 186.542 412.634 184.592 410.226 184.592C407.82 184.592 405.868 186.542 405.868 188.95V189.345C405.868 190.504 406.327 191.611 407.145 192.429C407.963 193.247 409.07 193.706 410.225 193.706H410.226Z" fill="#C0C0C0" fill-opacity="0.2"/>
<path d="M129.547 62.5276V72.0726H128.31V62.5276H124.937V61.4275H132.92V62.5276H129.547ZM135.46 62.5357C135.325 62.6705 135.152 62.7379 134.942 62.7379C134.732 62.7379 134.562 62.6705 134.432 62.5357C134.303 62.3955 134.238 62.1932 134.238 61.929C134.238 61.6648 134.303 61.4652 134.432 61.3304C134.562 61.1956 134.732 61.1282 134.942 61.1282C135.152 61.1282 135.325 61.1983 135.46 61.3385C135.594 61.4733 135.662 61.6728 135.662 61.9371C135.662 62.1959 135.594 62.3955 135.46 62.5357ZM135.549 64.0968V72.0726H134.335V64.0968H135.549ZM149.482 72.0726H148.277V66.8794C148.277 65.6122 147.719 64.9785 146.602 64.9785C145.847 64.9785 145.289 65.1942 144.928 65.6257C144.572 66.0571 144.394 66.7204 144.394 67.6155V72.0726H143.189V66.8794C143.189 66.2377 143.051 65.7605 142.776 65.4477C142.501 65.1349 142.078 64.9785 141.506 64.9785C140.741 64.9785 140.182 65.2077 139.832 65.6661C139.487 66.1191 139.314 66.8606 139.314 67.8906V72.0726H138.101V64.0968H139.088L139.282 65.1888H139.338C139.57 64.8006 139.894 64.4986 140.309 64.2829C140.724 64.0618 141.188 63.9512 141.7 63.9512C142.946 63.9512 143.76 64.4015 144.143 65.3021H144.208C144.451 64.8815 144.796 64.5525 145.243 64.3152C145.696 64.0726 146.209 63.9512 146.78 63.9512C147.697 63.9512 148.377 64.1858 148.819 64.655C149.261 65.1241 149.482 65.8629 149.482 66.8714V72.0726ZM155.333 72.2182C154.152 72.2182 153.219 71.8596 152.535 71.1423C151.855 70.4251 151.515 69.4248 151.515 68.1413C151.515 66.8579 151.831 65.8387 152.462 65.0837C153.103 64.3287 153.939 63.9512 154.969 63.9512C156.005 63.9512 156.814 64.2802 157.396 64.9381C157.978 65.596 158.27 66.4615 158.27 67.5347V68.3031H152.769C152.796 69.236 153.033 69.9479 153.481 70.4386C153.929 70.9239 154.573 71.1666 155.414 71.1666C156.261 71.1666 157.097 70.986 157.922 70.6246V71.7005C157.507 71.8838 157.105 72.0159 156.717 72.0968C156.328 72.1777 155.867 72.2182 155.333 72.2182ZM156.975 67.3163C156.975 66.5559 156.805 65.9735 156.466 65.569C156.126 65.1646 155.638 64.9624 155.002 64.9624C154.371 64.9624 153.861 65.17 153.473 65.5852C153.09 66.0004 152.866 66.5775 152.801 67.3163H156.975Z" fill="#C0C0C0" fill-opacity="0.7"/>
<path d="M550.437 326.595C550.401 284.154 538.291 242.6 515.519 206.785C492.748 170.97 460.256 142.374 421.84 124.336L414.161 140.69C449.475 157.271 479.342 183.557 500.273 216.478C521.205 249.4 532.338 287.598 532.371 326.61L550.437 326.595Z" fill="white"/>
<g filter="url(#filter4_d_302_40)">
<path d="M550.384 359.397C534.041 358.982 503.418 343.224 496.893 328.077C506.125 314.328 535.56 299.095 551.903 299.509C568.246 299.924 581.155 313.666 580.736 330.204C580.316 346.741 566.727 359.811 550.384 359.397Z" fill="white"/>
</g>
<g filter="url(#filter5_d_302_40)">
<path d="M449.353 135.447C440.761 149.355 411.72 167.869 395.349 165.874C388.123 150.973 389.795 117.871 398.386 103.962C406.978 90.054 425.353 85.8269 439.427 94.5211C453.501 103.215 457.945 121.538 449.353 135.447Z" fill="white"/>
</g>
<defs>
<filter id="filter0_f_302_40" x="395.915" y="371.835" width="132.269" height="151.209" filterUnits="userSpaceOnUse" color-interpolation-filters="sRGB">
<feFlood flood-opacity="0" result="BackgroundImageFix"/>
<feBlend mode="normal" in="SourceGraphic" in2="BackgroundImageFix" result="shape"/>
<feGaussianBlur stdDeviation="2" result="effect1_foregroundBlur_302_40"/>
</filter>
<filter id="filter1_f_302_40" x="121.737" y="329.501" width="210.359" height="210.83" filterUnits="userSpaceOnUse" color-interpolation-filters="sRGB">
<feFlood flood-opacity="0" result="BackgroundImageFix"/>
<feBlend mode="normal" in="SourceGraphic" in2="BackgroundImageFix" result="shape"/>
<feGaussianBlur stdDeviation="2" result="effect1_foregroundBlur_302_40"/>
</filter>
<filter id="filter2_f_302_40" x="180.042" y="125.984" width="157.673" height="78.7725" filterUnits="userSpaceOnUse" color-interpolation-filters="sRGB">
<feFlood flood-opacity="0" result="BackgroundImageFix"/>
<feBlend mode="normal" in="SourceGraphic" in2="BackgroundImageFix" result="shape"/>
<feGaussianBlur stdDeviation="2" result="effect1_foregroundBlur_302_40"/>
</filter>
<filter id="filter3_d_302_40" x="139.82" y="149.246" width="375.143" height="375.143" filterUnits="userSpaceOnUse" color-interpolation-filters="sRGB">
<feFlood flood-opacity="0" result="BackgroundImageFix"/>
<feColorMatrix in="SourceAlpha" type="matrix" values="0 0 0 0 0 0 0 0 0 0 0 0 0 0 0 0 0 0 127 0" result="hardAlpha"/>
<feOffset dy="4"/>
<feGaussianBlur stdDeviation="35"/>
<feComposite in2="hardAlpha" operator="out"/>
<feColorMatrix type="matrix" values="0 0 0 0 0 0 0 0 0 0 0 0 0 0 0 0 0 0 0.5 0"/>
<feBlend mode="normal" in2="BackgroundImageFix" result="effect1_dropShadow_302_40"/>
<feBlend mode="normal" in="SourceGraphic" in2="effect1_dropShadow_302_40" result="shape"/>
</filter>
<filter id="filter4_d_302_40" x="490.893" y="289.501" width="95.853" height="71.9057" filterUnits="userSpaceOnUse" color-interpolation-filters="sRGB">
<feFlood flood-opacity="0" result="BackgroundImageFix"/>
<feColorMatrix in="SourceAlpha" type="matrix" values="0 0 0 0 0 0 0 0 0 0 0 0 0 0 0 0 0 0 127 0" result="hardAlpha"/>
<feOffset dy="-4"/>
<feGaussianBlur stdDeviation="3"/>
<feComposite in2="hardAlpha" operator="out"/>
<feColorMatrix type="matrix" values="0 0 0 0 0 0 0 0 0 0 0 0 0 0 0 0 0 0 0.25 0"/>
<feBlend mode="normal" in2="BackgroundImageFix" result="effect1_dropShadow_302_40"/>
<feBlend mode="normal" in="SourceGraphic" in2="effect1_dropShadow_302_40" result="shape"/>
</filter>
<filter id="filter5_d_302_40" x="384.806" y="88.0017" width="74.9248" height="88.0212" filterUnits="userSpaceOnUse" color-interpolation-filters="sRGB">
<feFlood flood-opacity="0" result="BackgroundImageFix"/>
<feColorMatrix in="SourceAlpha" type="matrix" values="0 0 0 0 0 0 0 0 0 0 0 0 0 0 0 0 0 0 127 0" result="hardAlpha"/>
<feOffset dy="4"/>
<feGaussianBlur stdDeviation="3"/>
<feComposite in2="hardAlpha" operator="out"/>
<feColorMatrix type="matrix" values="0 0 0 0 0 0 0 0 0 0 0 0 0 0 0 0 0 0 0.25 0"/>
<feBlend mode="normal" in2="BackgroundImageFix" result="effect1_dropShadow_302_40"/>
<feBlend mode="normal" in="SourceGraphic" in2="effect1_dropShadow_302_40" result="shape"/>
</filter>
</defs>
</svg>
